<?xml version="1.0" encoding="utf-8"?>
<!-- Generator: Adobe Illustrator 16.0.2, SVG Export Plug-In . SVG Version: 6.00 Build 0)  -->
<!DOCTYPE svg PUBLIC "-//W3C//DTD SVG 1.1//EN" "http://www.w3.org/Graphics/SVG/1.1/DTD/svg11.dtd">
<svg version="1.1" id="Layer_1" xmlns="http://www.w3.org/2000/svg" xmlns:xlink="http://www.w3.org/1999/xlink" x="0px" y="0px"
	 width="400px" height="800px" viewBox="0 0 400 800" enable-background="new 0 0 400 800" xml:space="preserve">
<path fill-rule="evenodd" clip-rule="evenodd" fill="#34A853" d="M226.969,85.603c186.5-14.5,139.252,194.377,104,322
	c-22.015,79.699-59.929,217.934-114,261c-13.689,10.902-31.548,15.551-49,23c-51.399,21.936-104.291,37.924-167,50
	c0-141.32,0-282.682,0-424c0-35.997,0-72.003,0-108c0-10.087-3.187-32.995,2-39c30.382-29.475,119.909-62.652,168-76
	C189.634,91.604,208.304,88.603,226.969,85.603z"/>
</svg>
