<svg xmlns="http://www.w3.org/2000/svg" xmlns:xlink="http://www.w3.org/1999/xlink" id="Layer_1" width="400" height="800" x="0" y="0" enable-background="new 0 0 400 800" version="1.1" viewBox="0 0 400 800" xml:space="preserve"><path fill="#34A853" fill-rule="evenodd" d="M226.969,85.603c186.5-14.5,139.252,194.377,104,322	c-22.015,79.699-59.929,217.934-114,261c-13.689,10.902-31.548,15.551-49,23c-51.399,21.936-104.291,37.924-167,50	c0-141.32,0-282.682,0-424c0-35.997,0-72.003,0-108c0-10.087-3.187-32.995,2-39c30.382-29.475,119.909-62.652,168-76	C189.634,91.604,208.304,88.603,226.969,85.603z" clip-rule="evenodd"/></svg>