<svg xmlns="http://www.w3.org/2000/svg" xmlns:xlink="http://www.w3.org/1999/xlink" id="Layer_1" width="800" height="800" x="0" y="0" enable-background="new 0 0 800 800" version="1.1" viewBox="0 0 800 800" xml:space="preserve"><path fill="#EA4335" fill-rule="evenodd" d="M427,72c125.333-29.002,248.679-55.002,373-55.002	c0,182.315,0,509.687,0,692.002c-0.333,0-0.667,0-1,0c-81.551-21.418-163.109-78.274-270-59c-59.356,10.703-94.049,41.931-138,67	c-71.811,40.96-175.672,31.172-236-13C3.826,593.312,46.44,427.986,136,287c12.093-19.037,54.275-73.996,68.333-89	c39.333-40,40-37,75.667-60c32.378-20,48.667-28.667,92-47C390.332,84.667,408.668,78.333,427,72L427,72z" clip-rule="evenodd"/></svg>