<?xml version="1.0" encoding="utf-8"?>
<!-- Generator: Adobe Illustrator 16.0.2, SVG Export Plug-In . SVG Version: 6.00 Build 0)  -->
<!DOCTYPE svg PUBLIC "-//W3C//DTD SVG 1.1//EN" "http://www.w3.org/Graphics/SVG/1.1/DTD/svg11.dtd">
<svg version="1.1" id="Layer_1" xmlns="http://www.w3.org/2000/svg" xmlns:xlink="http://www.w3.org/1999/xlink" x="0px" y="0px"
	 width="600px" height="700px" viewBox="0 0 600 700" enable-background="new 0 0 600 700" xml:space="preserve">
<path fill-rule="evenodd" clip-rule="evenodd" fill="#34A853" d="M0,74.488c134.992-46.457,181.449-55.906,316.095-44.095
	C381.827,42.205,392.473,42.992,441,50.189c16.578,5.021,87.692,7.764,107.378,45.559c12.599,45.669-23.622,77.953-52.378,99.441
	c-86.933,63.298-207.736,133.685-267,222c-17.42,25.959-31.739,56.326-41,90c-3,22.33-6,44.668-9,67
	c-13.435,61.084-38.985,131.326-124,116c-18.332-4-36.668-8-55-12C0,508.205,0,244.472,0,74.488z"/>
</svg>
