<?xml version="1.0" encoding="utf-8"?>
<!-- Generator: Adobe Illustrator 16.0.2, SVG Export Plug-In . SVG Version: 6.00 Build 0)  -->
<!DOCTYPE svg PUBLIC "-//W3C//DTD SVG 1.1//EN" "http://www.w3.org/Graphics/SVG/1.1/DTD/svg11.dtd">
<svg version="1.1" id="Layer_1" xmlns="http://www.w3.org/2000/svg" xmlns:xlink="http://www.w3.org/1999/xlink" x="0px" y="0px"
	 width="600px" height="800px" viewBox="0 0 600 800" enable-background="new 0 0 600 800" xml:space="preserve">
<path fill-rule="evenodd" clip-rule="evenodd" fill="#F8C511" d="M592.925,800c-121.188,0-242.413,0-363.601,0
	c0.4-0.6,0.8-1.2,1.2-1.8c32.363-14.796,32.47-67.382,18-100.8c-8.599-16.799-17.201-33.603-25.8-50.4
	c-17.907-40.475-35.879-78.484-49.8-124.2c-8.681-28.51-14.322-72.622-2.4-102c22.991-56.654,86.71-69.455,154.2-82.2
	c19.398-1.6,38.802-3.2,58.2-4.8c31.996-0.4,64.003-0.8,96-1.2c16.998-1,34.001-2,51-3c24.947-4.139,50.762-7.108,73.8-10.8
	c0,65.793,0,131.607,0,197.4c0,16.771,3.777,70.482-1.2,81.6c-21.84,9.915-69.492,61.44-56.4,98.4
	c4.106,11.593,12.365,18.937,19.2,27.6C581.45,744.24,593.031,764.398,592.925,800z"/>
</svg>
